<svg xmlns="http://www.w3.org/2000/svg" xmlns:xlink="http://www.w3.org/1999/xlink" width="1700" zoomAndPan="magnify" viewBox="0 0 1275 525.000007" height="700" preserveAspectRatio="xMidYMid meet" version="1.0"><defs><g/><clipPath id="2e18a346bb"><path d="M 664 244 L 752 244 L 752 360.875 L 664 360.875 Z M 664 244 " clip-rule="nonzero"/></clipPath><clipPath id="dcf10bfba6"><path d="M 691 119.832031 L 726 119.832031 L 726 243 L 691 243 Z M 691 119.832031 " clip-rule="nonzero"/></clipPath><clipPath id="607d001fa0"><path d="M 832 337 L 907 337 L 907 360.875 L 832 360.875 Z M 832 337 " clip-rule="nonzero"/></clipPath><clipPath id="3f536f5faf"><rect x="0" width="263" y="0" height="155"/></clipPath><clipPath id="98851adb44"><rect x="0" width="233" y="0" height="165"/></clipPath><clipPath id="73cf5f44d1"><rect x="0" width="518" y="0" height="72"/></clipPath></defs><g clip-path="url(#2e18a346bb)"><path fill="#1c52cb" d="M 743.789062 345.898438 C 748.5625 341.125 751.257812 334.902344 751.464844 328.261719 C 753.75 267.246094 734.65625 250.4375 726.5625 246.078125 C 724.695312 245.039062 722.621094 244.625 720.542969 244.625 L 695.640625 244.625 C 693.566406 244.625 691.488281 245.039062 689.621094 246.078125 C 681.320312 250.4375 662.226562 267.453125 664.71875 328.261719 C 664.925781 334.902344 667.832031 341.335938 672.398438 345.898438 C 679.246094 352.542969 690.867188 360.636719 708.09375 360.636719 C 725.316406 360.636719 737.148438 352.75 743.789062 345.898438 Z M 690.867188 343.203125 C 690.867188 338.636719 694.601562 335.109375 698.960938 335.109375 L 716.808594 335.109375 C 721.375 335.109375 724.902344 338.84375 724.902344 343.203125 C 724.902344 347.769531 721.167969 351.296875 716.808594 351.296875 L 698.960938 351.296875 C 694.601562 351.503906 690.867188 347.769531 690.867188 343.203125 Z M 690.867188 343.203125 " fill-opacity="1" fill-rule="nonzero"/></g><g clip-path="url(#dcf10bfba6)"><path fill="#1c52cb" d="M 692.527344 212.042969 L 691.074219 242.550781 C 692.527344 242.132812 693.980469 241.925781 695.640625 241.925781 L 720.542969 241.925781 C 721.996094 241.925781 723.65625 242.132812 725.109375 242.550781 L 723.65625 212.042969 L 720.335938 210.382812 L 720.335938 204.570312 L 723.242188 201.875 L 722.410156 185.476562 L 722.203125 185.6875 L 717.847656 177.175781 L 719.921875 167.628906 L 721.375 167.628906 L 721.167969 161.613281 L 717.847656 158.5 L 717.847656 150.820312 L 719.507812 147.914062 L 719.507812 142.3125 L 720.335938 141.6875 L 720.128906 135.464844 L 708.09375 119.898438 L 696.261719 135.464844 L 696.054688 141.6875 L 696.886719 142.3125 L 696.886719 147.914062 L 698.546875 150.820312 L 698.546875 158.5 L 695.226562 161.613281 L 695.019531 167.628906 L 696.46875 167.628906 L 698.546875 177.175781 L 694.1875 185.6875 L 693.980469 185.476562 L 693.148438 201.875 L 696.054688 204.570312 L 696.054688 210.382812 Z M 706.015625 136.707031 C 706.015625 135.671875 706.847656 134.632812 708.09375 134.632812 C 709.128906 134.632812 710.167969 135.464844 710.167969 136.707031 L 710.167969 228.023438 L 706.226562 228.023438 L 706.226562 136.707031 Z M 706.015625 136.707031 " fill-opacity="1" fill-rule="nonzero"/></g><path fill="#1c52cb" d="M 915.625 216.191406 C 909.8125 211.003906 895.285156 210.796875 891.757812 218.683594 C 891.34375 219.511719 890.511719 228.851562 891.136719 228.851562 C 890.71875 229.058594 885.324219 231.136719 885.324219 231.136719 C 884.703125 199.175781 855.230469 168.667969 855.230469 168.667969 C 822.441406 161.613281 770.765625 158.707031 770.558594 158.707031 C 770.558594 158.707031 750.636719 159.746094 727.601562 162.234375 L 728.015625 171.574219 L 728.015625 172.613281 C 741.710938 170.535156 755.617188 169.707031 768.484375 169.707031 L 770.351562 169.707031 C 792.351562 169.5 816.632812 171.78125 839.667969 178.835938 C 839.667969 178.835938 839.875 178.835938 839.875 178.835938 C 841.328125 179.875 862.910156 197.515625 868.515625 227.816406 C 868.515625 228.023438 868.308594 228.4375 868.097656 228.4375 L 730.714844 228.4375 L 731.335938 241.71875 C 734.242188 243.585938 737.355469 246.078125 740.675781 250.226562 C 740.882812 248.359375 742.542969 246.699219 744.617188 246.699219 C 746.691406 246.699219 748.5625 248.566406 748.5625 250.644531 L 748.5625 263.09375 C 748.5625 263.300781 748.769531 263.511719 748.769531 263.71875 C 753.957031 275.339844 756.863281 290.28125 757.691406 308.128906 L 831.988281 308.128906 C 834.0625 308.128906 835.722656 309.789062 835.722656 311.863281 L 835.722656 319.335938 C 835.722656 321.410156 834.0625 323.070312 831.988281 323.070312 L 758.109375 323.070312 C 758.109375 324.941406 758.109375 326.808594 757.898438 328.882812 C 757.898438 329.921875 757.691406 330.957031 757.691406 331.996094 L 904.003906 331.996094 C 906.492188 331.996094 908.359375 329.921875 908.359375 327.636719 L 908.359375 234.039062 C 908.359375 234.664062 918.113281 231.34375 919.359375 230.304688 C 924.753906 225.945312 919.359375 219.511719 915.625 216.191406 Z M 765.785156 281.566406 C 765.785156 283.847656 763.917969 285.507812 761.84375 285.507812 C 759.558594 285.507812 757.898438 283.640625 757.898438 281.566406 L 757.898438 250.4375 C 757.898438 248.359375 759.769531 246.492188 761.84375 246.492188 C 763.917969 246.492188 765.785156 248.359375 765.785156 250.4375 Z M 783.011719 281.566406 C 783.011719 283.847656 781.144531 285.507812 779.066406 285.507812 C 776.992188 285.507812 775.125 283.640625 775.125 281.566406 L 775.125 250.4375 C 775.125 248.359375 776.992188 246.492188 779.066406 246.492188 C 781.351562 246.492188 783.011719 248.359375 783.011719 250.4375 Z M 800.027344 281.566406 C 800.027344 283.847656 798.160156 285.507812 796.085938 285.507812 C 794.011719 285.507812 792.144531 283.640625 792.144531 281.566406 L 792.144531 250.4375 C 792.144531 248.359375 794.011719 246.492188 796.085938 246.492188 C 798.367188 246.492188 800.027344 248.359375 800.027344 250.4375 Z M 817.253906 281.566406 C 817.253906 283.847656 815.386719 285.507812 813.3125 285.507812 C 811.027344 285.507812 809.367188 283.640625 809.367188 281.566406 L 809.367188 250.4375 C 809.367188 248.359375 811.234375 246.492188 813.3125 246.492188 C 815.386719 246.492188 817.253906 248.359375 817.253906 250.4375 Z M 838.421875 258.738281 C 838.421875 248.984375 862.703125 243.792969 872.25 243.792969 C 881.796875 243.792969 889.683594 249.191406 889.683594 258.738281 C 889.683594 268.285156 881.796875 273.679688 872.25 273.679688 C 862.496094 273.679688 838.421875 268.285156 838.421875 258.738281 Z M 894.871094 319.128906 C 894.871094 321.203125 893.210938 322.863281 891.136719 322.863281 L 849.835938 322.863281 C 847.761719 322.863281 846.101562 321.203125 846.101562 319.128906 L 846.101562 311.65625 C 846.101562 309.582031 847.761719 307.921875 849.835938 307.921875 L 891.136719 307.921875 C 893.210938 307.921875 894.871094 309.582031 894.871094 311.65625 Z M 894.871094 319.128906 " fill-opacity="1" fill-rule="nonzero"/><g clip-path="url(#607d001fa0)"><path fill="#1c52cb" d="M 832.402344 337.804688 L 832.402344 351.917969 C 832.402344 356.691406 836.347656 360.636719 841.121094 360.636719 L 898.191406 360.636719 C 902.964844 360.636719 906.90625 356.691406 906.90625 351.917969 L 906.90625 337.804688 Z M 832.402344 337.804688 " fill-opacity="1" fill-rule="nonzero"/></g><g transform="matrix(1, 0, 0, 1, 384, 121)"><g clip-path="url(#3f536f5faf)"><g fill="#3b75f7" fill-opacity="1"><g transform="translate(0.383348, 120.400244)"><g><path d="M 29.671875 0 L 43.421875 0 L 34.640625 -45.328125 C 37.265625 -47.117188 39.191406 -49.941406 40.421875 -53.796875 C 41.660156 -57.660156 42.28125 -61.925781 42.28125 -66.59375 C 42.28125 -75.425781 40.429688 -82.132812 36.734375 -86.71875 C 33.046875 -91.300781 27.082031 -93.59375 18.84375 -93.59375 L 5.09375 -93.59375 L 5.09375 0 L 18.84375 0 L 18.84375 -39.46875 L 22.546875 -39.46875 Z M 18.84375 -52.203125 L 18.84375 -79.96875 C 19.78125 -79.96875 20.84375 -79.882812 22.03125 -79.71875 C 23.21875 -79.550781 24.320312 -79 25.34375 -78.0625 C 26.363281 -77.207031 27.234375 -75.828125 27.953125 -73.921875 C 28.671875 -72.015625 29.03125 -69.40625 29.03125 -66.09375 C 29.03125 -62.78125 28.671875 -60.210938 27.953125 -58.390625 C 27.234375 -56.566406 26.363281 -55.1875 25.34375 -54.25 C 24.320312 -53.394531 23.21875 -52.835938 22.03125 -52.578125 C 20.84375 -52.328125 19.78125 -52.203125 18.84375 -52.203125 Z M 18.84375 -52.203125 "/></g></g></g><g fill="#3b75f7" fill-opacity="1"><g transform="translate(46.344048, 120.400244)"><g><path d="M 5.09375 -93.59375 L 5.09375 0 L 36.546875 0 L 36.546875 -14.140625 L 18.84375 -14.140625 L 18.84375 -39.859375 L 31.578125 -39.859375 L 31.578125 -54.890625 L 18.84375 -54.890625 L 18.84375 -79.46875 L 36.546875 -79.46875 L 36.546875 -93.59375 Z M 5.09375 -93.59375 "/></g></g></g><g fill="#3b75f7" fill-opacity="1"><g transform="translate(85.429738, 120.400244)"><g><path d="M 19.609375 -48.765625 L 32.984375 0 L 45.203125 0 L 45.203125 -93.59375 L 32.59375 -93.59375 L 32.59375 -40.5 L 31.828125 -40.5 L 30.6875 -44.828125 L 17.3125 -93.59375 L 5.09375 -93.59375 L 5.09375 0 L 17.703125 0 L 17.703125 -53.109375 L 18.46875 -53.109375 Z M 19.609375 -48.765625 "/></g></g></g><g fill="#3b75f7" fill-opacity="1"><g transform="translate(135.719153, 120.400244)"><g><path d="M 0.25 -79.46875 L 13.25 -79.46875 L 13.25 0 L 27 0 L 27 -79.46875 L 39.984375 -79.46875 L 39.984375 -93.59375 L 0.25 -93.59375 Z M 0.25 -79.46875 "/></g></g></g><g fill="#3b75f7" fill-opacity="1"><g transform="translate(175.950689, 120.400244)"><g><path d="M 1.265625 0 L 14.640625 0 L 17.1875 -19.09375 L 30.4375 -19.09375 L 32.984375 0 L 46.359375 0 L 32.21875 -93.59375 L 15.40625 -93.59375 Z M 24.578125 -63.15625 L 28.53125 -33.625 L 19.09375 -33.625 L 23.046875 -63.15625 L 23.4375 -65.578125 L 24.1875 -65.578125 Z M 24.578125 -63.15625 "/></g></g></g><g fill="#3b75f7" fill-opacity="1"><g transform="translate(223.566485, 120.400244)"><g><path d="M 5.09375 -93.59375 L 5.09375 0 L 37.0625 0 L 37.0625 -12.734375 L 18.84375 -12.734375 L 18.84375 -93.59375 Z M 5.09375 -93.59375 "/></g></g></g></g></g><g transform="matrix(1, 0, 0, 1, 384, 236)"><g clip-path="url(#98851adb44)"><g fill="#1c52cb" fill-opacity="1"><g transform="translate(0.383348, 127.127033)"><g><path d="M 29.984375 0 L 36.28125 0 L 45.71875 -63.25 L 46.265625 -67.484375 L 47.09375 -67.484375 L 47.09375 0 L 60.78125 0 L 60.78125 -100.609375 L 42.703125 -100.609375 L 33.953125 -54.625 L 33.265625 -49.28125 L 32.984375 -49.28125 L 32.3125 -54.625 L 23.546875 -100.609375 L 5.46875 -100.609375 L 5.46875 0 L 19.171875 0 L 19.171875 -67.484375 L 19.984375 -67.484375 L 20.53125 -63.25 Z M 29.984375 0 "/></g></g></g><g fill="#1c52cb" fill-opacity="1"><g transform="translate(66.631158, 127.127033)"><g><path d="M 43.9375 -20.671875 L 43.9375 -79.9375 C 43.757812 -84.050781 42.941406 -87.660156 41.484375 -90.765625 C 40.835938 -92.128906 40.035156 -93.472656 39.078125 -94.796875 C 38.117188 -96.117188 36.957031 -97.28125 35.59375 -98.28125 C 34.21875 -99.289062 32.59375 -100.113281 30.71875 -100.75 C 28.851562 -101.382812 26.691406 -101.703125 24.234375 -101.703125 C 21.765625 -101.703125 19.570312 -101.382812 17.65625 -100.75 C 15.738281 -100.113281 14.097656 -99.289062 12.734375 -98.28125 C 11.359375 -97.28125 10.210938 -96.117188 9.296875 -94.796875 C 8.390625 -93.472656 7.617188 -92.128906 6.984375 -90.765625 C 5.523438 -87.660156 4.703125 -84.050781 4.515625 -79.9375 L 4.515625 -20.671875 C 4.703125 -16.472656 5.523438 -12.820312 6.984375 -9.71875 C 7.617188 -8.351562 8.390625 -7.03125 9.296875 -5.75 C 10.210938 -4.46875 11.359375 -3.328125 12.734375 -2.328125 C 15.554688 -0.046875 19.390625 1.09375 24.234375 1.09375 C 28.972656 1.09375 32.757812 -0.046875 35.59375 -2.328125 C 36.957031 -3.328125 38.117188 -4.46875 39.078125 -5.75 C 40.035156 -7.03125 40.835938 -8.351562 41.484375 -9.71875 C 42.941406 -12.820312 43.757812 -16.472656 43.9375 -20.671875 Z M 29.15625 -79.9375 L 29.15625 -20.671875 C 29.15625 -19.023438 28.972656 -17.789062 28.609375 -16.96875 C 28.335938 -15.96875 27.859375 -15.101562 27.171875 -14.375 C 26.484375 -13.644531 25.503906 -13.28125 24.234375 -13.28125 C 23.046875 -13.28125 22.085938 -13.644531 21.359375 -14.375 C 19.984375 -15.925781 19.296875 -18.023438 19.296875 -20.671875 L 19.296875 -79.9375 C 19.296875 -81.40625 19.476562 -82.640625 19.84375 -83.640625 C 20.125 -84.554688 20.601562 -85.398438 21.28125 -86.171875 C 21.96875 -86.953125 22.953125 -87.34375 24.234375 -87.34375 C 25.503906 -87.34375 26.503906 -86.972656 27.234375 -86.234375 C 28.515625 -84.679688 29.15625 -82.582031 29.15625 -79.9375 Z M 29.15625 -79.9375 "/></g></g></g><g fill="#1c52cb" fill-opacity="1"><g transform="translate(115.085131, 127.127033)"><g><path d="M 5.46875 0 L 23.6875 0 C 28.0625 -0.1875 31.734375 -1.097656 34.703125 -2.734375 C 37.671875 -4.378906 40.019531 -6.476562 41.75 -9.03125 C 43.488281 -11.675781 44.722656 -14.640625 45.453125 -17.921875 C 46.179688 -21.210938 46.546875 -24.726562 46.546875 -28.46875 C 46.546875 -33.582031 46 -37.691406 44.90625 -40.796875 C 42.800781 -47.003906 39.925781 -51.109375 36.28125 -53.109375 C 38.007812 -54.660156 39.46875 -56.164062 40.65625 -57.625 C 41.84375 -59.09375 42.800781 -60.644531 43.53125 -62.28125 C 44.257812 -63.925781 44.757812 -65.679688 45.03125 -67.546875 C 45.3125 -69.421875 45.453125 -71.546875 45.453125 -73.921875 C 45.453125 -78.941406 44.878906 -83.140625 43.734375 -86.515625 C 42.597656 -89.890625 40.890625 -92.628906 38.609375 -94.734375 C 36.328125 -96.828125 33.492188 -98.328125 30.109375 -99.234375 C 26.734375 -100.148438 22.859375 -100.609375 18.484375 -100.609375 L 5.46875 -100.609375 Z M 20.265625 -59.140625 L 20.265625 -85.96875 C 20.898438 -85.96875 21.851562 -85.921875 23.125 -85.828125 C 24.40625 -85.734375 25.640625 -85.28125 26.828125 -84.46875 C 28.109375 -83.644531 29.160156 -82.316406 29.984375 -80.484375 C 30.804688 -78.660156 31.21875 -76.015625 31.21875 -72.546875 C 31.21875 -69.078125 30.804688 -66.429688 29.984375 -64.609375 C 29.160156 -62.785156 28.109375 -61.460938 26.828125 -60.640625 C 25.640625 -59.816406 24.40625 -59.359375 23.125 -59.265625 C 21.851562 -59.179688 20.898438 -59.140625 20.265625 -59.140625 Z M 20.265625 -14.640625 L 20.265625 -45.578125 C 20.898438 -45.578125 21.851562 -45.554688 23.125 -45.515625 C 24.40625 -45.472656 25.640625 -44.992188 26.828125 -44.078125 C 28.109375 -43.160156 29.160156 -41.628906 29.984375 -39.484375 C 30.804688 -37.347656 31.21875 -34.222656 31.21875 -30.109375 C 31.21875 -26.003906 30.804688 -22.878906 29.984375 -20.734375 C 29.160156 -18.585938 28.109375 -17.0625 26.828125 -16.15625 C 25.640625 -15.238281 24.40625 -14.753906 23.125 -14.703125 C 21.851562 -14.660156 20.898438 -14.640625 20.265625 -14.640625 Z M 20.265625 -14.640625 "/></g></g></g><g fill="#1c52cb" fill-opacity="1"><g transform="translate(164.907864, 127.127033)"><g><path d="M 5.46875 -100.609375 L 5.46875 0 L 20.265625 0 L 20.265625 -100.609375 Z M 5.46875 -100.609375 "/></g></g></g><g fill="#1c52cb" fill-opacity="1"><g transform="translate(190.640487, 127.127033)"><g><path d="M 5.46875 -100.609375 L 5.46875 0 L 39.828125 0 L 39.828125 -13.6875 L 20.265625 -13.6875 L 20.265625 -100.609375 Z M 5.46875 -100.609375 "/></g></g></g></g></g><g transform="matrix(1, 0, 0, 1, 400, 358)"><g clip-path="url(#73cf5f44d1)"><g fill="#3b75f7" fill-opacity="1"><g transform="translate(2.523355, 55.857261)"><g><path d="M 21.453125 -39.296875 C 24.847656 -39.296875 27.8125 -38.734375 30.34375 -37.609375 C 32.875 -36.492188 34.8125 -34.882812 36.15625 -32.78125 C 37.5 -30.6875 38.171875 -28.195312 38.171875 -25.3125 C 38.171875 -22.46875 37.5 -19.988281 36.15625 -17.875 C 34.8125 -15.757812 32.875 -14.140625 30.34375 -13.015625 C 27.8125 -11.898438 24.847656 -11.34375 21.453125 -11.34375 L 12.578125 -11.34375 L 12.578125 0 L 5.28125 0 L 5.28125 -39.296875 Z M 21.109375 -17.515625 C 24.285156 -17.515625 26.695312 -18.1875 28.34375 -19.53125 C 30 -20.882812 30.828125 -22.8125 30.828125 -25.3125 C 30.828125 -27.820312 30 -29.75 28.34375 -31.09375 C 26.695312 -32.445312 24.285156 -33.125 21.109375 -33.125 L 12.578125 -33.125 L 12.578125 -17.515625 Z M 21.109375 -17.515625 "/></g></g></g><g fill="#3b75f7" fill-opacity="1"><g transform="translate(85.246986, 55.857261)"><g><path d="M 30.765625 -9.09375 L 11.109375 -9.09375 L 7.234375 0 L -0.28125 0 L 17.40625 -39.296875 L 24.59375 -39.296875 L 42.328125 0 L 34.6875 0 Z M 28.34375 -14.828125 L 20.9375 -32 L 13.59375 -14.828125 Z M 28.34375 -14.828125 "/></g></g></g><g fill="#3b75f7" fill-opacity="1"><g transform="translate(169.261828, 55.857261)"><g><path d="M 5.28125 -39.296875 L 22.453125 -39.296875 C 26.648438 -39.296875 30.375 -38.484375 33.625 -36.859375 C 36.882812 -35.234375 39.410156 -32.929688 41.203125 -29.953125 C 43.003906 -26.972656 43.90625 -23.539062 43.90625 -19.65625 C 43.90625 -15.757812 43.003906 -12.320312 41.203125 -9.34375 C 39.410156 -6.375 36.882812 -4.070312 33.625 -2.4375 C 30.375 -0.8125 26.648438 0 22.453125 0 L 5.28125 0 Z M 22.125 -6.171875 C 25 -6.171875 27.53125 -6.722656 29.71875 -7.828125 C 31.914062 -8.929688 33.601562 -10.503906 34.78125 -12.546875 C 35.957031 -14.585938 36.546875 -16.957031 36.546875 -19.65625 C 36.546875 -22.34375 35.957031 -24.707031 34.78125 -26.75 C 33.601562 -28.789062 31.914062 -30.363281 29.71875 -31.46875 C 27.53125 -32.570312 25 -33.125 22.125 -33.125 L 12.578125 -33.125 L 12.578125 -6.171875 Z M 22.125 -6.171875 "/></g></g></g><g fill="#3b75f7" fill-opacity="1"><g transform="translate(257.599271, 55.857261)"><g><path d="M 30.765625 -9.09375 L 11.109375 -9.09375 L 7.234375 0 L -0.28125 0 L 17.40625 -39.296875 L 24.59375 -39.296875 L 42.328125 0 L 34.6875 0 Z M 28.34375 -14.828125 L 20.9375 -32 L 13.59375 -14.828125 Z M 28.34375 -14.828125 "/></g></g></g><g fill="#3b75f7" fill-opacity="1"><g transform="translate(341.614113, 55.857261)"><g><path d="M 40.203125 -39.296875 L 40.203125 0 L 34.1875 0 L 12.515625 -26.609375 L 12.515625 0 L 5.28125 0 L 5.28125 -39.296875 L 11.28125 -39.296875 L 32.953125 -12.6875 L 32.953125 -39.296875 Z M 40.203125 -39.296875 "/></g></g></g><g fill="#3b75f7" fill-opacity="1"><g transform="translate(429.053365, 55.857261)"><g><path d="M 32.109375 -20.09375 L 39.015625 -20.09375 L 39.015625 -4.4375 C 36.992188 -2.820312 34.632812 -1.582031 31.9375 -0.71875 C 29.25 0.132812 26.484375 0.5625 23.640625 0.5625 C 19.628906 0.5625 16.015625 -0.304688 12.796875 -2.046875 C 9.578125 -3.785156 7.050781 -6.1875 5.21875 -9.25 C 3.382812 -12.320312 2.46875 -15.789062 2.46875 -19.65625 C 2.46875 -23.507812 3.382812 -26.96875 5.21875 -30.03125 C 7.050781 -33.101562 9.585938 -35.507812 12.828125 -37.25 C 16.066406 -38.988281 19.707031 -39.859375 23.75 -39.859375 C 27.039062 -39.859375 30.03125 -39.316406 32.71875 -38.234375 C 35.414062 -37.148438 37.679688 -35.554688 39.515625 -33.453125 L 34.921875 -28.96875 C 31.921875 -31.957031 28.304688 -33.453125 24.078125 -33.453125 C 21.316406 -33.453125 18.859375 -32.875 16.703125 -31.71875 C 14.546875 -30.5625 12.859375 -28.929688 11.640625 -26.828125 C 10.429688 -24.734375 9.828125 -22.34375 9.828125 -19.65625 C 9.828125 -17.03125 10.429688 -14.671875 11.640625 -12.578125 C 12.859375 -10.484375 14.546875 -8.835938 16.703125 -7.640625 C 18.859375 -6.441406 21.300781 -5.84375 24.03125 -5.84375 C 27.09375 -5.84375 29.785156 -6.515625 32.109375 -7.859375 Z M 32.109375 -20.09375 "/></g></g></g></g></g></svg>