<svg xmlns="http://www.w3.org/2000/svg" xmlns:xlink="http://www.w3.org/1999/xlink" width="1700" zoomAndPan="magnify" viewBox="0 0 1275 525.000007" height="700" preserveAspectRatio="xMidYMid meet" version="1.0"><defs><g/><clipPath id="e52b0a2a8a"><path d="M 681 248 L 768 248 L 768 362.226562 L 681 362.226562 Z M 681 248 " clip-rule="nonzero"/></clipPath><clipPath id="3bc8eff375"><path d="M 707 125.679688 L 742 125.679688 L 742 247 L 707 247 Z M 707 125.679688 " clip-rule="nonzero"/></clipPath><clipPath id="bf11af6e6b"><path d="M 846 339 L 921 339 L 921 362.226562 L 846 362.226562 Z M 846 339 " clip-rule="nonzero"/></clipPath><clipPath id="f78246ff77"><rect x="0" width="259" y="0" height="153"/></clipPath><clipPath id="61705f0f62"><rect x="0" width="229" y="0" height="162"/></clipPath><clipPath id="5b7bce7210"><rect x="0" width="536" y="0" height="74"/></clipPath></defs><g clip-path="url(#e52b0a2a8a)"><path fill="#ff5757" d="M 759.710938 347.847656 C 764.402344 343.15625 767.054688 337.035156 767.257812 330.511719 C 769.503906 270.546875 750.738281 254.027344 742.785156 249.746094 C 740.949219 248.726562 738.910156 248.316406 736.871094 248.316406 L 712.394531 248.316406 C 710.355469 248.316406 708.316406 248.726562 706.480469 249.746094 C 698.324219 254.027344 679.558594 270.753906 682.007812 330.511719 C 682.210938 337.035156 685.066406 343.359375 689.550781 347.847656 C 696.28125 354.371094 707.703125 362.328125 724.632812 362.328125 C 741.558594 362.328125 753.1875 354.578125 759.710938 347.847656 Z M 707.703125 345.195312 C 707.703125 340.707031 711.375 337.242188 715.660156 337.242188 L 733.199219 337.242188 C 737.683594 337.242188 741.152344 340.914062 741.152344 345.195312 C 741.152344 349.683594 737.480469 353.148438 733.199219 353.148438 L 715.660156 353.148438 C 711.375 353.351562 707.703125 349.683594 707.703125 345.195312 Z M 707.703125 345.195312 " fill-opacity="1" fill-rule="nonzero"/></g><g clip-path="url(#3bc8eff375)"><path fill="#ff5757" d="M 709.335938 216.296875 L 707.910156 246.277344 C 709.335938 245.871094 710.761719 245.664062 712.394531 245.664062 L 736.871094 245.664062 C 738.296875 245.664062 739.929688 245.871094 741.355469 246.277344 L 739.929688 216.296875 L 736.664062 214.664062 L 736.664062 208.953125 L 739.519531 206.304688 L 738.707031 190.191406 L 738.5 190.394531 L 734.21875 182.03125 L 736.257812 172.652344 L 737.683594 172.652344 L 737.480469 166.734375 L 734.21875 163.675781 L 734.21875 156.128906 L 735.851562 153.273438 L 735.851562 147.769531 L 736.664062 147.15625 L 736.460938 141.039062 L 724.632812 125.742188 L 713.007812 141.039062 L 712.804688 147.15625 L 713.617188 147.769531 L 713.617188 153.273438 L 715.25 156.128906 L 715.25 163.675781 L 711.988281 166.734375 L 711.785156 172.652344 L 713.210938 172.652344 L 715.25 182.03125 L 710.96875 190.394531 L 710.761719 190.191406 L 709.949219 206.304688 L 712.804688 208.953125 L 712.804688 214.664062 Z M 722.59375 142.261719 C 722.59375 141.242188 723.410156 140.222656 724.632812 140.222656 C 725.652344 140.222656 726.671875 141.039062 726.671875 142.261719 L 726.671875 232 L 722.796875 232 L 722.796875 142.261719 Z M 722.59375 142.261719 " fill-opacity="1" fill-rule="nonzero"/></g><path fill="#ff5757" d="M 928.585938 220.375 C 922.875 215.277344 908.597656 215.074219 905.132812 222.824219 C 904.722656 223.640625 903.90625 232.816406 904.519531 232.816406 C 904.109375 233.019531 898.808594 235.058594 898.808594 235.058594 C 898.195312 203.652344 869.234375 173.671875 869.234375 173.671875 C 837.011719 166.734375 786.226562 163.878906 786.023438 163.878906 C 786.023438 163.878906 766.441406 164.902344 743.804688 167.347656 L 744.210938 176.527344 L 744.210938 177.546875 C 757.671875 175.507812 771.335938 174.691406 783.984375 174.691406 L 785.816406 174.691406 C 807.4375 174.484375 831.300781 176.730469 853.9375 183.664062 C 853.9375 183.664062 854.144531 183.664062 854.144531 183.664062 C 855.570312 184.683594 876.78125 202.019531 882.289062 231.796875 C 882.289062 232 882.085938 232.410156 881.878906 232.410156 L 746.863281 232.410156 L 747.476562 245.460938 C 750.332031 247.296875 753.390625 249.746094 756.652344 253.824219 C 756.855469 251.988281 758.488281 250.355469 760.527344 250.355469 C 762.566406 250.355469 764.402344 252.191406 764.402344 254.230469 L 764.402344 266.46875 C 764.402344 266.671875 764.605469 266.878906 764.605469 267.082031 C 769.707031 278.503906 772.5625 293.1875 773.378906 310.726562 L 846.390625 310.726562 C 848.433594 310.726562 850.0625 312.359375 850.0625 314.398438 L 850.0625 321.742188 C 850.0625 323.78125 848.433594 325.410156 846.390625 325.410156 L 773.785156 325.410156 C 773.785156 327.246094 773.785156 329.082031 773.582031 331.121094 C 773.582031 332.140625 773.378906 333.160156 773.378906 334.183594 L 917.164062 334.183594 C 919.613281 334.183594 921.445312 332.140625 921.445312 329.898438 L 921.445312 237.914062 C 921.445312 238.527344 931.03125 235.265625 932.257812 234.246094 C 937.558594 229.960938 932.257812 223.640625 928.585938 220.375 Z M 781.332031 284.621094 C 781.332031 286.863281 779.496094 288.496094 777.457031 288.496094 C 775.210938 288.496094 773.582031 286.660156 773.582031 284.621094 L 773.582031 254.027344 C 773.582031 251.988281 775.417969 250.152344 777.457031 250.152344 C 779.496094 250.152344 781.332031 251.988281 781.332031 254.027344 Z M 798.257812 284.621094 C 798.257812 286.863281 796.425781 288.496094 794.382812 288.496094 C 792.34375 288.496094 790.507812 286.660156 790.507812 284.621094 L 790.507812 254.027344 C 790.507812 251.988281 792.34375 250.152344 794.382812 250.152344 C 796.628906 250.152344 798.257812 251.988281 798.257812 254.027344 Z M 814.984375 284.621094 C 814.984375 286.863281 813.148438 288.496094 811.109375 288.496094 C 809.070312 288.496094 807.234375 286.660156 807.234375 284.621094 L 807.234375 254.027344 C 807.234375 251.988281 809.070312 250.152344 811.109375 250.152344 C 813.351562 250.152344 814.984375 251.988281 814.984375 254.027344 Z M 831.910156 284.621094 C 831.910156 286.863281 830.078125 288.496094 828.035156 288.496094 C 825.792969 288.496094 824.160156 286.660156 824.160156 284.621094 L 824.160156 254.027344 C 824.160156 251.988281 825.996094 250.152344 828.035156 250.152344 C 830.078125 250.152344 831.910156 251.988281 831.910156 254.027344 Z M 852.714844 262.1875 C 852.714844 252.601562 876.578125 247.5 885.960938 247.5 C 895.339844 247.5 903.089844 252.804688 903.089844 262.1875 C 903.089844 271.566406 895.339844 276.871094 885.960938 276.871094 C 876.375 276.871094 852.714844 271.566406 852.714844 262.1875 Z M 908.191406 321.535156 C 908.191406 323.574219 906.558594 325.207031 904.519531 325.207031 L 863.933594 325.207031 C 861.894531 325.207031 860.261719 323.574219 860.261719 321.535156 L 860.261719 314.195312 C 860.261719 312.15625 861.894531 310.523438 863.933594 310.523438 L 904.519531 310.523438 C 906.558594 310.523438 908.191406 312.15625 908.191406 314.195312 Z M 908.191406 321.535156 " fill-opacity="1" fill-rule="nonzero"/><g clip-path="url(#bf11af6e6b)"><path fill="#ff5757" d="M 846.800781 339.890625 L 846.800781 353.761719 C 846.800781 358.453125 850.675781 362.328125 855.367188 362.328125 L 911.453125 362.328125 C 916.144531 362.328125 920.019531 358.453125 920.019531 353.761719 L 920.019531 339.890625 Z M 846.800781 339.890625 " fill-opacity="1" fill-rule="nonzero"/></g><g transform="matrix(1, 0, 0, 1, 389, 116)"><g clip-path="url(#f78246ff77)"><g fill="#cc0000" fill-opacity="1"><g transform="translate(0.951482, 117.977571)"><g><path d="M 29.15625 0 L 42.671875 0 L 34.03125 -44.546875 C 36.625 -46.296875 38.523438 -49.066406 39.734375 -52.859375 C 40.941406 -56.660156 41.546875 -60.859375 41.546875 -65.453125 C 41.546875 -74.128906 39.726562 -80.71875 36.09375 -85.21875 C 32.46875 -89.726562 26.609375 -91.984375 18.515625 -91.984375 L 5 -91.984375 L 5 0 L 18.515625 0 L 18.515625 -38.796875 L 22.15625 -38.796875 Z M 18.515625 -51.3125 L 18.515625 -78.59375 C 19.429688 -78.59375 20.472656 -78.507812 21.640625 -78.34375 C 22.816406 -78.175781 23.90625 -77.632812 24.90625 -76.71875 C 25.90625 -75.875 26.757812 -74.515625 27.46875 -72.640625 C 28.175781 -70.765625 28.53125 -68.203125 28.53125 -64.953125 C 28.53125 -61.691406 28.175781 -59.164062 27.46875 -57.375 C 26.757812 -55.582031 25.90625 -54.226562 24.90625 -53.3125 C 23.90625 -52.476562 22.816406 -51.9375 21.640625 -51.6875 C 20.472656 -51.4375 19.429688 -51.3125 18.515625 -51.3125 Z M 18.515625 -51.3125 "/></g></g></g><g fill="#cc0000" fill-opacity="1"><g transform="translate(46.120845, 117.977571)"><g><path d="M 5 -91.984375 L 5 0 L 35.921875 0 L 35.921875 -13.890625 L 18.515625 -13.890625 L 18.515625 -39.171875 L 31.03125 -39.171875 L 31.03125 -53.9375 L 18.515625 -53.9375 L 18.515625 -78.09375 L 35.921875 -78.09375 L 35.921875 -91.984375 Z M 5 -91.984375 "/></g></g></g><g fill="#cc0000" fill-opacity="1"><g transform="translate(84.533569, 117.977571)"><g><path d="M 19.265625 -47.921875 L 32.40625 0 L 44.421875 0 L 44.421875 -91.984375 L 32.03125 -91.984375 L 32.03125 -39.796875 L 31.28125 -39.796875 L 30.15625 -44.046875 L 17.015625 -91.984375 L 5 -91.984375 L 5 0 L 17.390625 0 L 17.390625 -52.1875 L 18.140625 -52.1875 Z M 19.265625 -47.921875 "/></g></g></g><g fill="#cc0000" fill-opacity="1"><g transform="translate(133.957116, 117.977571)"><g><path d="M 0.25 -78.09375 L 13.015625 -78.09375 L 13.015625 0 L 26.53125 0 L 26.53125 -78.09375 L 39.296875 -78.09375 L 39.296875 -91.984375 L 0.25 -91.984375 Z M 0.25 -78.09375 "/></g></g></g><g fill="#cc0000" fill-opacity="1"><g transform="translate(173.495958, 117.977571)"><g><path d="M 1.25 0 L 14.390625 0 L 16.890625 -18.765625 L 29.90625 -18.765625 L 32.40625 0 L 45.546875 0 L 31.65625 -91.984375 L 15.140625 -91.984375 Z M 24.15625 -62.0625 L 28.03125 -33.03125 L 18.765625 -33.03125 L 22.65625 -62.0625 L 23.03125 -64.453125 L 23.78125 -64.453125 Z M 24.15625 -62.0625 "/></g></g></g><g fill="#cc0000" fill-opacity="1"><g transform="translate(220.29192, 117.977571)"><g><path d="M 5 -91.984375 L 5 0 L 36.421875 0 L 36.421875 -12.515625 L 18.515625 -12.515625 L 18.515625 -91.984375 Z M 5 -91.984375 "/></g></g></g></g></g><g transform="matrix(1, 0, 0, 1, 389, 229)"><g clip-path="url(#61705f0f62)"><g fill="#cc0000" fill-opacity="1"><g transform="translate(0.951482, 124.608496)"><g><path d="M 29.46875 0 L 35.65625 0 L 44.9375 -62.15625 L 45.484375 -66.328125 L 46.28125 -66.328125 L 46.28125 0 L 59.734375 0 L 59.734375 -98.890625 L 41.984375 -98.890625 L 33.375 -53.6875 L 32.6875 -48.4375 L 32.421875 -48.4375 L 31.75 -53.6875 L 23.140625 -98.890625 L 5.375 -98.890625 L 5.375 0 L 18.84375 0 L 18.84375 -66.328125 L 19.640625 -66.328125 L 20.1875 -62.15625 Z M 29.46875 0 "/></g></g></g><g fill="#cc0000" fill-opacity="1"><g transform="translate(66.058657, 124.608496)"><g><path d="M 43.1875 -20.3125 L 43.1875 -78.578125 C 43.007812 -82.609375 42.203125 -86.148438 40.765625 -89.203125 C 40.140625 -90.546875 39.351562 -91.867188 38.40625 -93.171875 C 37.46875 -94.472656 36.328125 -95.617188 34.984375 -96.609375 C 33.640625 -97.585938 32.046875 -98.390625 30.203125 -99.015625 C 28.367188 -99.648438 26.238281 -99.96875 23.8125 -99.96875 C 21.394531 -99.96875 19.242188 -99.648438 17.359375 -99.015625 C 15.472656 -98.390625 13.859375 -97.585938 12.515625 -96.609375 C 11.171875 -95.617188 10.046875 -94.472656 9.140625 -93.171875 C 8.242188 -91.867188 7.484375 -90.546875 6.859375 -89.203125 C 5.421875 -86.148438 4.613281 -82.609375 4.4375 -78.578125 L 4.4375 -20.3125 C 4.613281 -16.1875 5.421875 -12.597656 6.859375 -9.546875 C 7.484375 -8.203125 8.242188 -6.898438 9.140625 -5.640625 C 10.046875 -4.390625 11.171875 -3.269531 12.515625 -2.28125 C 15.296875 -0.0390625 19.0625 1.078125 23.8125 1.078125 C 28.476562 1.078125 32.203125 -0.0390625 34.984375 -2.28125 C 36.328125 -3.269531 37.46875 -4.390625 38.40625 -5.640625 C 39.351562 -6.898438 40.140625 -8.203125 40.765625 -9.546875 C 42.203125 -12.597656 43.007812 -16.1875 43.1875 -20.3125 Z M 28.65625 -78.578125 L 28.65625 -20.3125 C 28.65625 -18.695312 28.476562 -17.488281 28.125 -16.6875 C 27.851562 -15.695312 27.378906 -14.84375 26.703125 -14.125 C 26.035156 -13.40625 25.070312 -13.046875 23.8125 -13.046875 C 22.644531 -13.046875 21.703125 -13.40625 20.984375 -14.125 C 19.640625 -15.65625 18.96875 -17.71875 18.96875 -20.3125 L 18.96875 -78.578125 C 18.96875 -80.015625 19.148438 -81.222656 19.515625 -82.203125 C 19.773438 -83.097656 20.242188 -83.925781 20.921875 -84.6875 C 21.597656 -85.457031 22.5625 -85.84375 23.8125 -85.84375 C 25.070312 -85.84375 26.0625 -85.484375 26.78125 -84.765625 C 28.03125 -83.242188 28.65625 -81.179688 28.65625 -78.578125 Z M 28.65625 -78.578125 "/></g></g></g><g fill="#cc0000" fill-opacity="1"><g transform="translate(113.678364, 124.608496)"><g><path d="M 5.375 0 L 23.28125 0 C 27.582031 -0.175781 31.191406 -1.070312 34.109375 -2.6875 C 37.023438 -4.300781 39.332031 -6.363281 41.03125 -8.875 C 42.738281 -11.476562 43.953125 -14.394531 44.671875 -17.625 C 45.390625 -20.851562 45.75 -24.304688 45.75 -27.984375 C 45.75 -33.003906 45.207031 -37.039062 44.125 -40.09375 C 42.0625 -46.195312 39.238281 -50.234375 35.65625 -52.203125 C 37.363281 -53.722656 38.796875 -55.203125 39.953125 -56.640625 C 41.117188 -58.078125 42.0625 -59.601562 42.78125 -61.21875 C 43.5 -62.832031 43.992188 -64.554688 44.265625 -66.390625 C 44.535156 -68.234375 44.671875 -70.320312 44.671875 -72.65625 C 44.671875 -77.59375 44.109375 -81.71875 42.984375 -85.03125 C 41.867188 -88.351562 40.1875 -91.046875 37.9375 -93.109375 C 35.695312 -95.171875 32.914062 -96.648438 29.59375 -97.546875 C 26.28125 -98.441406 22.46875 -98.890625 18.15625 -98.890625 L 5.375 -98.890625 Z M 19.90625 -58.125 L 19.90625 -84.5 C 20.539062 -84.5 21.484375 -84.453125 22.734375 -84.359375 C 23.992188 -84.265625 25.207031 -83.816406 26.375 -83.015625 C 27.625 -82.203125 28.648438 -80.898438 29.453125 -79.109375 C 30.265625 -77.316406 30.671875 -74.71875 30.671875 -71.3125 C 30.671875 -67.90625 30.265625 -65.300781 29.453125 -63.5 C 28.648438 -61.707031 27.625 -60.410156 26.375 -59.609375 C 25.207031 -58.796875 23.992188 -58.34375 22.734375 -58.25 C 21.484375 -58.164062 20.539062 -58.125 19.90625 -58.125 Z M 19.90625 -14.390625 L 19.90625 -44.796875 C 20.539062 -44.796875 21.484375 -44.773438 22.734375 -44.734375 C 23.992188 -44.691406 25.207031 -44.222656 26.375 -43.328125 C 27.625 -42.429688 28.648438 -40.925781 29.453125 -38.8125 C 30.265625 -36.707031 30.671875 -33.632812 30.671875 -29.59375 C 30.671875 -25.5625 30.265625 -22.488281 29.453125 -20.375 C 28.648438 -18.269531 27.625 -16.769531 26.375 -15.875 C 25.207031 -14.976562 23.992188 -14.503906 22.734375 -14.453125 C 21.484375 -14.410156 20.539062 -14.390625 19.90625 -14.390625 Z M 19.90625 -14.390625 "/></g></g></g><g fill="#cc0000" fill-opacity="1"><g transform="translate(162.643264, 124.608496)"><g><path d="M 5.375 -98.890625 L 5.375 0 L 19.90625 0 L 19.90625 -98.890625 Z M 5.375 -98.890625 "/></g></g></g><g fill="#cc0000" fill-opacity="1"><g transform="translate(187.93283, 124.608496)"><g><path d="M 5.375 -98.890625 L 5.375 0 L 39.15625 0 L 39.15625 -13.453125 L 19.90625 -13.453125 L 19.90625 -98.890625 Z M 5.375 -98.890625 "/></g></g></g></g></g><g transform="matrix(1, 0, 0, 1, 394, 374)"><g clip-path="url(#5b7bce7210)"><g fill="#cc0000" fill-opacity="1"><g transform="translate(1.438415, 57.715792)"><g><path d="M 22.359375 -40.984375 C 25.910156 -40.984375 29.003906 -40.394531 31.640625 -39.21875 C 34.273438 -38.050781 36.296875 -36.375 37.703125 -34.1875 C 39.109375 -32 39.8125 -29.40625 39.8125 -26.40625 C 39.8125 -23.4375 39.109375 -20.847656 37.703125 -18.640625 C 36.296875 -16.441406 34.273438 -14.753906 31.640625 -13.578125 C 29.003906 -12.410156 25.910156 -11.828125 22.359375 -11.828125 L 13.109375 -11.828125 L 13.109375 0 L 5.5 0 L 5.5 -40.984375 Z M 22.015625 -18.265625 C 25.328125 -18.265625 27.84375 -18.96875 29.5625 -20.375 C 31.28125 -21.78125 32.140625 -23.789062 32.140625 -26.40625 C 32.140625 -29.019531 31.28125 -31.03125 29.5625 -32.4375 C 27.84375 -33.84375 25.328125 -34.546875 22.015625 -34.546875 L 13.109375 -34.546875 L 13.109375 -18.265625 Z M 22.015625 -18.265625 "/></g></g></g><g fill="#cc0000" fill-opacity="1"><g transform="translate(87.679106, 57.715792)"><g><path d="M 32.078125 -9.484375 L 11.59375 -9.484375 L 7.546875 0 L -0.296875 0 L 18.15625 -40.984375 L 25.640625 -40.984375 L 44.140625 0 L 36.1875 0 Z M 29.5625 -15.453125 L 21.84375 -33.375 L 14.171875 -15.453125 Z M 29.5625 -15.453125 "/></g></g></g><g fill="#cc0000" fill-opacity="1"><g transform="translate(175.266125, 57.715792)"><g><path d="M 5.5 -40.984375 L 23.421875 -40.984375 C 27.785156 -40.984375 31.664062 -40.132812 35.0625 -38.4375 C 38.457031 -36.738281 41.09375 -34.335938 42.96875 -31.234375 C 44.84375 -28.128906 45.78125 -24.546875 45.78125 -20.484375 C 45.78125 -16.429688 44.84375 -12.851562 42.96875 -9.75 C 41.09375 -6.644531 38.457031 -4.242188 35.0625 -2.546875 C 31.664062 -0.847656 27.785156 0 23.421875 0 L 5.5 0 Z M 23.0625 -6.4375 C 26.070312 -6.4375 28.71875 -7.007812 31 -8.15625 C 33.28125 -9.3125 35.035156 -10.953125 36.265625 -13.078125 C 37.492188 -15.210938 38.109375 -17.679688 38.109375 -20.484375 C 38.109375 -23.296875 37.492188 -25.765625 36.265625 -27.890625 C 35.035156 -30.023438 33.28125 -31.664062 31 -32.8125 C 28.71875 -33.96875 26.070312 -34.546875 23.0625 -34.546875 L 13.109375 -34.546875 L 13.109375 -6.4375 Z M 23.0625 -6.4375 "/></g></g></g><g fill="#cc0000" fill-opacity="1"><g transform="translate(267.360488, 57.715792)"><g><path d="M 32.078125 -9.484375 L 11.59375 -9.484375 L 7.546875 0 L -0.296875 0 L 18.15625 -40.984375 L 25.640625 -40.984375 L 44.140625 0 L 36.1875 0 Z M 29.5625 -15.453125 L 21.84375 -33.375 L 14.171875 -15.453125 Z M 29.5625 -15.453125 "/></g></g></g><g fill="#cc0000" fill-opacity="1"><g transform="translate(354.947508, 57.715792)"><g><path d="M 41.921875 -40.984375 L 41.921875 0 L 35.65625 0 L 13.0625 -27.75 L 13.0625 0 L 5.5 0 L 5.5 -40.984375 L 11.765625 -40.984375 L 34.359375 -13.234375 L 34.359375 -40.984375 Z M 41.921875 -40.984375 "/></g></g></g><g fill="#cc0000" fill-opacity="1"><g transform="translate(446.105252, 57.715792)"><g><path d="M 33.484375 -20.953125 L 40.6875 -20.953125 L 40.6875 -4.625 C 38.582031 -2.945312 36.125 -1.660156 33.3125 -0.765625 C 30.5 0.128906 27.609375 0.578125 24.640625 0.578125 C 20.472656 0.578125 16.707031 -0.328125 13.34375 -2.140625 C 9.988281 -3.953125 7.351562 -6.457031 5.4375 -9.65625 C 3.53125 -12.863281 2.578125 -16.472656 2.578125 -20.484375 C 2.578125 -24.503906 3.53125 -28.113281 5.4375 -31.3125 C 7.351562 -34.519531 10 -37.03125 13.375 -38.84375 C 16.75 -40.65625 20.546875 -41.5625 24.765625 -41.5625 C 28.203125 -41.5625 31.320312 -40.992188 34.125 -39.859375 C 36.9375 -38.734375 39.300781 -37.078125 41.21875 -34.890625 L 36.421875 -30.203125 C 33.296875 -33.328125 29.523438 -34.890625 25.109375 -34.890625 C 22.222656 -34.890625 19.65625 -34.285156 17.40625 -33.078125 C 15.164062 -31.867188 13.410156 -30.171875 12.140625 -27.984375 C 10.878906 -25.796875 10.25 -23.296875 10.25 -20.484375 C 10.25 -17.753906 10.878906 -15.296875 12.140625 -13.109375 C 13.410156 -10.921875 15.164062 -9.203125 17.40625 -7.953125 C 19.65625 -6.710938 22.207031 -6.09375 25.0625 -6.09375 C 28.257812 -6.09375 31.066406 -6.796875 33.484375 -8.203125 Z M 33.484375 -20.953125 "/></g></g></g></g></g></svg>